# xmcd CD database file
# Copyright (C) 1993-1998 Ti Kan
#
# Track frame offsets:
#  182
#  23395
#  45520
#  70640
#  92217
#  111442
#  137762
#  170280
#
# Disc length: 2456 seconds
#
# Revision: 1
# Processed by: cddbd v1.4b41PL1 Copyright (c) Steve Scherf et al.
# Submitted via: CDWizzard Release:4.35
#
DISCID=5e099608
DTITLE=Andrae Crouch - I'll Be Thinking Of You
DYEAR=1900
DGENRE=
TTITLE0=I'll Be Thinking Of You
TTITLE1=Ive Got The Best
TTITLE2=Touch Me
TTITLE3=Lookin' For You
TTITLE4=Bringin' Back The Sunshine
TTITLE5=Jesus Is Lord
TTITLE6=The Love Medley: There's No Hatred, Let The Same Spirit, There's 
TTITLE6=No Hatred (reprise)
TTITLE7=Dreamin'
EXTD=
EXTT0=
EXTT1=
EXTT2=
EXTT3=
EXTT4=
EXTT5=
EXTT6=
EXTT7=
PLAYORDER=
